<?xml version="1.0" encoding="utf-8"?>

<!-- Uploaded to: SVG Repo, www.svgrepo.com, Generator: SVG Repo Mixer Tools -->
<svg fill="#000000" height="800px" width="800px" version="1.1" id="Icons" xmlns="http://www.w3.org/2000/svg" xmlns:xlink="http://www.w3.org/1999/xlink" 
	 viewBox="0 0 32 32" xml:space="preserve">
<path d="M27,4H5C3.3,4,2,5.3,2,7v18c0,1.7,1.3,3,3,3h2.9c-0.5,0-0.9-0.3-1-0.8c-0.2-0.7-0.3-1.5-0.3-2.2c0-0.7,0.1-1.4,0.3-2.2
	C7,22.3,7.5,22,8,22.1c0.6,0.1,1.2-0.2,1.6-0.8c0.3-0.5,0.3-1.2-0.1-1.7c-0.3-0.4-0.3-1,0.1-1.3c1.1-1,2.4-1.8,3.8-2.2
	c0.5-0.1,1,0.1,1.2,0.6c0.2,0.6,0.8,1,1.4,1s1.2-0.4,1.4-1c0.2-0.5,0.7-0.7,1.2-0.6c1.4,0.4,2.7,1.2,3.8,2.2
	c0.4,0.4,0.4,0.9,0.1,1.3c-0.4,0.5-0.4,1.2-0.1,1.7c0.3,0.5,0.9,0.9,1.6,0.8c0.5-0.1,1,0.3,1.1,0.8c0.2,0.7,0.3,1.5,0.3,2.2
	c0,0.7-0.1,1.5-0.3,2.2c-0.1,0.4-0.5,0.8-1,0.8H27c1.7,0,3-1.3,3-3V7C30,5.3,28.7,4,27,4z M7.9,8.4C7.9,8.5,7.8,8.6,7.7,8.7
	C7.5,8.9,7.3,9,7,9S6.5,8.9,6.3,8.7C6.1,8.5,6,8.3,6,8c0-0.3,0.1-0.5,0.3-0.7c0,0,0.1-0.1,0.1-0.1c0.1,0,0.1-0.1,0.2-0.1
	C6.7,7,6.7,7,6.8,7c0.1,0,0.3,0,0.4,0c0.1,0,0.1,0,0.2,0.1c0.1,0,0.1,0.1,0.2,0.1c0,0,0.1,0.1,0.1,0.1c0.1,0.1,0.2,0.2,0.2,0.3
	C8,7.7,8,7.9,8,8C8,8.1,8,8.3,7.9,8.4z M10.7,8.7C10.5,8.9,10.3,9,10,9C9.7,9,9.5,8.9,9.3,8.7C9.1,8.5,9,8.3,9,8
	c0-0.1,0-0.3,0.1-0.4c0.1-0.1,0.1-0.2,0.2-0.3c0.1-0.1,0.2-0.2,0.3-0.2C10,6.9,10.4,7,10.7,7.3c0.1,0.1,0.2,0.2,0.2,0.3
	C11,7.7,11,7.9,11,8C11,8.3,10.9,8.5,10.7,8.7z M13.9,8.4c-0.1,0.1-0.1,0.2-0.2,0.3C13.5,8.9,13.3,9,13,9c-0.1,0-0.3,0-0.4-0.1
	c-0.1-0.1-0.2-0.1-0.3-0.2c-0.1-0.1-0.2-0.2-0.2-0.3C12,8.3,12,8.1,12,8c0-0.1,0-0.3,0.1-0.4c0.1-0.1,0.1-0.2,0.2-0.3
	c0.4-0.4,1-0.4,1.4,0c0.1,0.1,0.2,0.2,0.2,0.3C14,7.7,14,7.9,14,8C14,8.1,14,8.3,13.9,8.4z"/>
<g>
	<path d="M16,29c-2.2,0-4-1.8-4-4s1.8-4,4-4s4,1.8,4,4S18.2,29,16,29z"/>
</g>
</svg>